<svg xmlns="http://www.w3.org/2000/svg" width="12" height="12" viewBox="0 0 12 12" fill="none">
    <path fill-rule="evenodd" clip-rule="evenodd" d="M5.16093 2.38431C5.46796 1.93221 6.12182 1.87098 6.51512 2.24328C6.95047 2.65539 7.19847 3.2181 7.19847 3.80868V4.44799C7.19847 4.7217 7.438 4.9727 7.77061 4.9727H9.60595C10.1552 4.9727 10.6071 5.46293 10.4777 6.02294L9.79851 8.96195C9.65588 9.57916 9.0861 10 8.44964 10H4.59579C3.84937 10 3.21419 9.42298 3.21419 8.67528V5.6443C3.21419 5.38649 3.29257 5.13549 3.43801 4.92133L5.16093 2.38431ZM2.40473 5.19996C2.62825 5.19996 2.80946 5.37905 2.80946 5.59996V9.19999C2.80946 9.42091 2.62825 9.6 2.40473 9.6C2.1812 9.6 2 9.42091 2 9.19999V5.59996C2 5.37905 2.1812 5.19996 2.40473 5.19996Z" fill="white"/>
</svg>