<svg xmlns="http://www.w3.org/2000/svg" width="20" height="20" viewBox="0 0 20 20" fill="none">
  <path  d="M7 3.33331V4.08331V3.33331ZM15 5.46665H14.25H15ZM15 14.5333H15.75H15ZM14.8638 15.9386L15.5405 16.2619H15.5405L14.8638 15.9386ZM13 16.6666V15.9166V16.6666ZM14.3175 16.5213L14.6756 17.1803L14.6756 17.1803L14.3175 16.5213ZM14.3175 3.47864L14.6756 2.81967L14.3175 3.47864ZM14.8638 4.06133L14.187 4.3846V4.3846L14.8638 4.06133ZM5.68251 3.47864L6.04066 4.1376H6.04066L5.68251 3.47864ZM5 5.46665H4.25H5ZM5.13624 4.06133L5.813 4.3846V4.3846L5.13624 4.06133ZM4.25 12.6666C4.25 13.0809 4.58579 13.4166 5 13.4166C5.41421 13.4166 5.75 13.0809 5.75 12.6666H4.25ZM8.75 15.9166C8.33579 15.9166 8 16.2524 8 16.6666C8 17.0809 8.33579 17.4166 8.75 17.4166V15.9166ZM5.10669 12.7805L5.65385 12.2675H5.65385L5.10669 12.7805ZM8.64331 16.5528L8.09615 17.0658L8.64331 16.5528ZM5.15089 12.6666L5.15089 13.4166H5.15089V12.6666ZM8.125 12.6666V11.9166V12.6666ZM8.75 13.3333H8H8.75ZM8.75 16.5057H9.5H8.75ZM12.5 10.75C12.9142 10.75 13.25 10.4142 13.25 9.99998C13.25 9.58577 12.9142 9.24998 12.5 9.24998V10.75ZM7.5 9.24998C7.08579 9.24998 6.75 9.58577 6.75 9.99998C6.75 10.4142 7.08579 10.75 7.5 10.75V9.24998ZM12.5 13.4166C12.9142 13.4166 13.25 13.0809 13.25 12.6666C13.25 12.2524 12.9142 11.9166 12.5 11.9166V13.4166ZM11.25 11.9166C10.8358 11.9166 10.5 12.2524 10.5 12.6666C10.5 13.0809 10.8358 13.4166 11.25 13.4166V11.9166ZM12.5 8.08331C12.9142 8.08331 13.25 7.74753 13.25 7.33331C13.25 6.9191 12.9142 6.58331 12.5 6.58331V8.08331ZM7.5 6.58331C7.08579 6.58331 6.75 6.9191 6.75 7.33331C6.75 7.74753 7.08579 8.08331 7.5 8.08331V6.58331ZM7 4.08331L13 4.08331V2.58331L7 2.58331L7 4.08331ZM14.25 5.46665V14.5333H15.75V5.46665H14.25ZM14.25 14.5333C14.25 14.9183 14.2495 15.1647 14.2352 15.3518C14.2214 15.5314 14.1983 15.5917 14.187 15.6154L15.5405 16.2619C15.6655 16.0003 15.7105 15.7314 15.7308 15.4663C15.7505 15.2087 15.75 14.8951 15.75 14.5333H14.25ZM13 17.4166C13.3368 17.4166 13.6376 17.4173 13.8861 17.3956C14.1449 17.3731 14.4145 17.3222 14.6756 17.1803L13.9593 15.8624C13.9531 15.8657 13.9139 15.8875 13.7559 15.9013C13.5875 15.916 13.3632 15.9166 13 15.9166V17.4166ZM14.187 15.6154C14.1325 15.7294 14.05 15.8131 13.9593 15.8624L14.6756 17.1803C15.0554 16.9739 15.3553 16.6496 15.5405 16.2619L14.187 15.6154ZM13 4.08331C13.3632 4.08331 13.5875 4.08398 13.7559 4.09865C13.9139 4.11242 13.9531 4.13423 13.9593 4.1376L14.6756 2.81967C14.4145 2.67773 14.1449 2.62687 13.8861 2.60431C13.6376 2.58265 13.3368 2.58331 13 2.58331V4.08331ZM15.75 5.46665C15.75 5.10489 15.7505 4.79127 15.7308 4.53364C15.7105 4.26857 15.6655 3.99962 15.5405 3.73805L14.187 4.3846C14.1983 4.40824 14.2214 4.46859 14.2352 4.6482C14.2495 4.83524 14.25 5.08167 14.25 5.46665H15.75ZM13.9593 4.1376C14.05 4.18687 14.1325 4.27052 14.187 4.3846L15.5405 3.73805C15.3553 3.35037 15.0554 3.02607 14.6756 2.81967L13.9593 4.1376ZM7 2.58331C6.66316 2.58331 6.36243 2.58265 6.11389 2.60431C5.85505 2.62687 5.58555 2.67772 5.32437 2.81967L6.04066 4.1376C6.04687 4.13423 6.08607 4.11242 6.24412 4.09865C6.41246 4.08398 6.63678 4.08331 7 4.08331L7 2.58331ZM5.75 5.46665C5.75 5.08167 5.75051 4.83523 5.76484 4.6482C5.7786 4.46859 5.8017 4.40824 5.813 4.3846L4.45949 3.73805C4.33454 3.99962 4.28952 4.26857 4.26922 4.53364C4.24949 4.79127 4.25 5.10489 4.25 5.46665H5.75ZM5.32437 2.81967C4.94461 3.02607 4.64468 3.35037 4.45949 3.73805L5.813 4.3846C5.86749 4.27052 5.95001 4.18687 6.04066 4.1376L5.32437 2.81967ZM5.75 12.6666L5.75 5.46665H4.25L4.25 12.6666H5.75ZM13 15.9166H8.75V17.4166H13V15.9166ZM4.55954 13.2934L8.09615 17.0658L9.19046 16.0399L5.65385 12.2675L4.55954 13.2934ZM5.15089 13.4166H8.125V11.9166H5.15089V13.4166ZM8 13.3333V16.5057H9.5V13.3333H8ZM8.125 13.4166C8.07422 13.4166 8.0371 13.3933 8.01979 13.3749C8.00326 13.3572 8 13.3408 8 13.3333H9.5C9.5 12.5972 8.92925 11.9166 8.125 11.9166L8.125 13.4166ZM8.09615 17.0658C8.3487 17.3352 8.7219 17.3826 9.01452 17.2533C9.30086 17.1268 9.5 16.84 9.5 16.5057H8C8 16.2308 8.16548 15.9886 8.40831 15.8813C8.65744 15.7712 8.97728 15.8125 9.19046 16.0399L8.09615 17.0658ZM5.65385 12.2675C5.85544 12.4825 5.87441 12.7678 5.79228 12.9793C5.70936 13.1928 5.4845 13.4166 5.15089 13.4166L5.15089 11.9166C4.7616 11.9166 4.49495 12.1764 4.39401 12.4363C4.29386 12.6942 4.31858 13.0364 4.55954 13.2934L5.65385 12.2675ZM12.5 9.24998H7.5V10.75H12.5V9.24998ZM12.5 11.9166H11.25V13.4166H12.5V11.9166ZM12.5 6.58331H7.5V8.08331H12.5V6.58331Z" fill="currentColor"/>
</svg>